<mxfile host="drawio-plugin" modified="2024-05-19T11:19:19.407Z" agent="Mozilla/5.0 (Macintosh; Intel Mac OS X 10_15_7) AppleWebKit/537.36 (KHTML, like Gecko) Chrome/122.0.0.0 Safari/537.36" etag="AW9RAzBklvmZnpUbMvZr" version="22.1.22" type="embed">
  <diagram id="2Oz9QWKT4EhfTwQjSeBf" name="Page-1">
    <mxGraphModel dx="1239" dy="1009" grid="1" gridSize="10" guides="1" tooltips="1" connect="1" arrows="1" fold="1" page="1" pageScale="1" pageWidth="1169" pageHeight="827" math="0" shadow="0">
      <root>
        <mxCell id="0" />
        <mxCell id="1" parent="0" />
        <mxCell id="40" style="edgeStyle=orthogonalEdgeStyle;rounded=0;orthogonalLoop=1;jettySize=auto;html=1;exitX=1;exitY=0.5;exitDx=0;exitDy=0;entryX=0;entryY=0.5;entryDx=0;entryDy=0;" parent="1" source="21" target="8" edge="1">
          <mxGeometry relative="1" as="geometry" />
        </mxCell>
        <mxCell id="21" value="" style="rounded=1;whiteSpace=wrap;html=1;fillColor=none;fontStyle=1;strokeWidth=2;" parent="1" vertex="1">
          <mxGeometry x="202.5" y="640" width="297.5" height="120" as="geometry" />
        </mxCell>
        <mxCell id="39" style="edgeStyle=orthogonalEdgeStyle;rounded=0;orthogonalLoop=1;jettySize=auto;html=1;exitX=1;exitY=0.5;exitDx=0;exitDy=0;entryX=0;entryY=0.5;entryDx=0;entryDy=0;" parent="1" source="20" target="21" edge="1">
          <mxGeometry relative="1" as="geometry" />
        </mxCell>
        <mxCell id="20" value="" style="rounded=1;whiteSpace=wrap;html=1;fillColor=none;fontStyle=1;strokeWidth=2;" parent="1" vertex="1">
          <mxGeometry x="202.5" y="440" width="297.5" height="120" as="geometry" />
        </mxCell>
        <mxCell id="34" style="edgeStyle=orthogonalEdgeStyle;rounded=0;orthogonalLoop=1;jettySize=auto;html=1;exitX=1;exitY=0.5;exitDx=0;exitDy=0;entryX=0;entryY=0.5;entryDx=0;entryDy=0;" parent="1" source="19" target="20" edge="1">
          <mxGeometry relative="1" as="geometry" />
        </mxCell>
        <mxCell id="19" value="" style="rounded=1;whiteSpace=wrap;html=1;fillColor=none;fontStyle=1;strokeWidth=2;" parent="1" vertex="1">
          <mxGeometry x="200" y="240" width="300" height="120" as="geometry" />
        </mxCell>
        <mxCell id="29" style="edgeStyle=orthogonalEdgeStyle;rounded=0;orthogonalLoop=1;jettySize=auto;html=1;exitX=1;exitY=0.5;exitDx=0;exitDy=0;entryX=0;entryY=0.5;entryDx=0;entryDy=0;" parent="1" source="2" target="25" edge="1">
          <mxGeometry relative="1" as="geometry" />
        </mxCell>
        <mxCell id="2" value="Start&lt;br&gt;Modeling" style="ellipse;whiteSpace=wrap;html=1;aspect=fixed;fontStyle=1;strokeWidth=2;fillColor=#1ba1e2;strokeColor=#006EAF;fontColor=#ffffff;" parent="1" vertex="1">
          <mxGeometry x="40" y="60" width="80" height="80" as="geometry" />
        </mxCell>
        <mxCell id="3" value="" style="shape=step;perimeter=stepPerimeter;whiteSpace=wrap;html=1;fixedSize=1;fontStyle=1;strokeWidth=2;fillColor=#1ba1e2;strokeColor=#006EAF;fontColor=#ffffff;" parent="1" vertex="1">
          <mxGeometry x="221.25" y="260" width="120" height="80" as="geometry" />
        </mxCell>
        <mxCell id="5" value="" style="shape=step;perimeter=stepPerimeter;whiteSpace=wrap;html=1;fixedSize=1;fontStyle=1;strokeWidth=2;fillColor=#1ba1e2;strokeColor=#006EAF;fontColor=#ffffff;" parent="1" vertex="1">
          <mxGeometry x="360" y="260" width="120" height="80" as="geometry" />
        </mxCell>
        <mxCell id="6" value="" style="shape=step;perimeter=stepPerimeter;whiteSpace=wrap;html=1;fixedSize=1;fontStyle=1;strokeWidth=2;fillColor=#1ba1e2;strokeColor=#006EAF;fontColor=#ffffff;" parent="1" vertex="1">
          <mxGeometry x="287.5" y="460" width="120" height="80" as="geometry" />
        </mxCell>
        <mxCell id="7" value="" style="shape=step;perimeter=stepPerimeter;whiteSpace=wrap;html=1;fixedSize=1;fontStyle=1;strokeWidth=2;fillColor=#1ba1e2;strokeColor=#006EAF;fontColor=#ffffff;" parent="1" vertex="1">
          <mxGeometry x="292.5" y="660" width="115" height="80" as="geometry" />
        </mxCell>
        <mxCell id="8" value="Finished Modeling" style="ellipse;whiteSpace=wrap;html=1;aspect=fixed;fontStyle=1;strokeWidth=2;fillColor=#1ba1e2;strokeColor=#006EAF;fontColor=#ffffff;" parent="1" vertex="1">
          <mxGeometry x="600" y="660" width="80" height="80" as="geometry" />
        </mxCell>
        <mxCell id="22" value="Generate Build Points" style="text;html=1;strokeColor=none;fillColor=none;align=center;verticalAlign=middle;whiteSpace=wrap;rounded=0;fontStyle=1;strokeWidth=2;" parent="1" vertex="1">
          <mxGeometry x="140" y="210" width="410" height="20" as="geometry" />
        </mxCell>
        <mxCell id="23" value="Model Build and Program Tab" style="text;html=1;strokeColor=none;fillColor=none;align=center;verticalAlign=middle;whiteSpace=wrap;rounded=0;fontStyle=1;strokeWidth=2;" parent="1" vertex="1">
          <mxGeometry x="270" y="414" width="181.25" height="20" as="geometry" />
        </mxCell>
        <mxCell id="24" value="Manage Model Tab" style="text;html=1;strokeColor=none;fillColor=none;align=center;verticalAlign=middle;whiteSpace=wrap;rounded=0;fontStyle=1;strokeWidth=2;" parent="1" vertex="1">
          <mxGeometry x="265" y="610" width="142.5" height="20" as="geometry" />
        </mxCell>
        <mxCell id="31" style="edgeStyle=orthogonalEdgeStyle;rounded=0;orthogonalLoop=1;jettySize=auto;html=1;exitX=1;exitY=0.5;exitDx=0;exitDy=0;entryX=0;entryY=0.5;entryDx=0;entryDy=0;" parent="1" source="25" target="19" edge="1">
          <mxGeometry relative="1" as="geometry">
            <Array as="points">
              <mxPoint x="500" y="110" />
              <mxPoint x="520" y="110" />
              <mxPoint x="520" y="200" />
              <mxPoint x="180" y="200" />
              <mxPoint x="180" y="300" />
            </Array>
          </mxGeometry>
        </mxCell>
        <mxCell id="25" value="" style="rounded=1;whiteSpace=wrap;html=1;fillColor=none;fontStyle=1;strokeWidth=2;" parent="1" vertex="1">
          <mxGeometry x="198.75" y="40" width="301.25" height="120" as="geometry" />
        </mxCell>
        <mxCell id="26" value="" style="shape=step;perimeter=stepPerimeter;whiteSpace=wrap;html=1;fixedSize=1;fontStyle=1;strokeWidth=2;fillColor=#1ba1e2;strokeColor=#006EAF;fontColor=#ffffff;" parent="1" vertex="1">
          <mxGeometry x="293.75" y="60" width="115" height="80" as="geometry" />
        </mxCell>
        <mxCell id="27" value="Hemisphere Window" style="text;html=1;strokeColor=none;fillColor=none;align=center;verticalAlign=middle;whiteSpace=wrap;rounded=0;fontStyle=1;strokeWidth=2;" parent="1" vertex="1">
          <mxGeometry x="198.75" y="10" width="142.5" height="20" as="geometry" />
        </mxCell>
        <mxCell id="41" value="&lt;font color=&quot;#ffffff&quot;&gt;Analyse&lt;br style=&quot;border-color: var(--border-color);&quot;&gt;Optimize&lt;br style=&quot;border-color: var(--border-color);&quot;&gt;Model&lt;/font&gt;" style="text;html=1;strokeColor=none;fillColor=none;align=center;verticalAlign=middle;whiteSpace=wrap;rounded=0;fontStyle=1;strokeWidth=2;" vertex="1" parent="1">
          <mxGeometry x="280" y="665" width="142.5" height="70" as="geometry" />
        </mxCell>
        <mxCell id="42" value="&lt;font color=&quot;#ffffff&quot;&gt;Run&lt;br style=&quot;border-color: var(--border-color);&quot;&gt;Model Build&lt;/font&gt;" style="text;html=1;strokeColor=none;fillColor=none;align=center;verticalAlign=middle;whiteSpace=wrap;rounded=0;fontStyle=1;strokeWidth=2;" vertex="1" parent="1">
          <mxGeometry x="280" y="465" width="142.5" height="70" as="geometry" />
        </mxCell>
        <mxCell id="43" value="&lt;font color=&quot;#ffffff&quot;&gt;Select&lt;br style=&quot;border-color: var(--border-color);&quot;&gt;Build Point&lt;/font&gt;" style="text;html=1;strokeColor=none;fillColor=none;align=center;verticalAlign=middle;whiteSpace=wrap;rounded=0;fontStyle=1;strokeWidth=2;" vertex="1" parent="1">
          <mxGeometry x="210" y="265" width="142.5" height="70" as="geometry" />
        </mxCell>
        <mxCell id="44" value="&lt;font color=&quot;#ffffff&quot;&gt;Polar Align&lt;br style=&quot;border-color: var(--border-color);&quot;&gt;Ortho Align&lt;/font&gt;" style="text;html=1;strokeColor=none;fillColor=none;align=center;verticalAlign=middle;whiteSpace=wrap;rounded=0;fontStyle=1;strokeWidth=2;" vertex="1" parent="1">
          <mxGeometry x="287.5" y="65" width="142.5" height="70" as="geometry" />
        </mxCell>
        <mxCell id="45" value="&lt;font color=&quot;#ffffff&quot;&gt;Sorting&lt;br style=&quot;border-color: var(--border-color);&quot;&gt;Constraints&lt;/font&gt;" style="text;html=1;strokeColor=none;fillColor=none;align=center;verticalAlign=middle;whiteSpace=wrap;rounded=0;fontStyle=1;strokeWidth=2;" vertex="1" parent="1">
          <mxGeometry x="348.75" y="265" width="142.5" height="70" as="geometry" />
        </mxCell>
      </root>
    </mxGraphModel>
  </diagram>
</mxfile>
